<mxfile host="app.diagrams.net" agent="Mozilla/5.0 (Windows NT 10.0; Win64; x64) AppleWebKit/537.36 (KHTML, like Gecko) Chrome/140.0.0.0 Safari/537.36" version="28.2.2">
  <diagram name="ページ1" id="GeovTgD065zjUNkVagAK">
    <mxGraphModel dx="383" dy="450" grid="1" gridSize="10" guides="1" tooltips="1" connect="1" arrows="1" fold="1" page="1" pageScale="1" pageWidth="1169" pageHeight="1654" math="0" shadow="0">
      <root>
        <mxCell id="0" />
        <mxCell id="1" parent="0" />
        <mxCell id="qj5rxI9r2_AvYIzPK2SU-1" value="ユーザー" style="shape=umlActor;verticalLabelPosition=bottom;verticalAlign=top;html=1;outlineConnect=0;" vertex="1" parent="1">
          <mxGeometry x="40" y="120" width="40" height="80" as="geometry" />
        </mxCell>
        <mxCell id="qj5rxI9r2_AvYIzPK2SU-2" value="ブラウザ" style="shape=umlBoundary;whiteSpace=wrap;html=1;" vertex="1" parent="1">
          <mxGeometry x="240" y="70" width="100" height="80" as="geometry" />
        </mxCell>
        <mxCell id="qj5rxI9r2_AvYIzPK2SU-3" value="ログイン画面" style="shape=umlBoundary;whiteSpace=wrap;html=1;" vertex="1" parent="1">
          <mxGeometry x="240" y="170" width="100" height="80" as="geometry" />
        </mxCell>
        <mxCell id="qj5rxI9r2_AvYIzPK2SU-4" value="新規登録画面&lt;span style=&quot;color: rgba(0, 0, 0, 0); font-family: monospace; font-size: 0px; text-align: start; text-wrap-mode: nowrap;&quot;&gt;%3CmxGraphModel%3E%3Croot%3E%3CmxCell%20id%3D%220%22%2F%3E%3CmxCell%20id%3D%221%22%20parent%3D%220%22%2F%3E%3CmxCell%20id%3D%222%22%20value%3D%22Boundary%20Object%22%20style%3D%22shape%3DumlBoundary%3BwhiteSpace%3Dwrap%3Bhtml%3D1%3B%22%20vertex%3D%221%22%20parent%3D%221%22%3E%3CmxGeometry%20x%3D%22240%22%20y%3D%22200%22%20width%3D%22100%22%20height%3D%2280%22%20as%3D%22geometry%22%2F%3E%3C%2FmxCell%3E%3C%2Froot%3E%3C%2FmxGraphModel%3E&lt;/span&gt;" style="shape=umlBoundary;whiteSpace=wrap;html=1;" vertex="1" parent="1">
          <mxGeometry x="240" y="380" width="100" height="80" as="geometry" />
        </mxCell>
        <mxCell id="qj5rxI9r2_AvYIzPK2SU-5" value="welcomeページ" style="shape=umlBoundary;whiteSpace=wrap;html=1;" vertex="1" parent="1">
          <mxGeometry x="240" y="270" width="100" height="80" as="geometry" />
        </mxCell>
        <mxCell id="qj5rxI9r2_AvYIzPK2SU-6" value="ログイン失敗画面" style="shape=umlBoundary;whiteSpace=wrap;html=1;" vertex="1" parent="1">
          <mxGeometry x="240" y="490" width="100" height="80" as="geometry" />
        </mxCell>
        <mxCell id="qj5rxI9r2_AvYIzPK2SU-7" value="表示画面" style="ellipse;shape=umlControl;whiteSpace=wrap;html=1;" vertex="1" parent="1">
          <mxGeometry x="580" y="70" width="70" height="80" as="geometry" />
        </mxCell>
        <mxCell id="qj5rxI9r2_AvYIzPK2SU-10" value="ユーザー認証" style="ellipse;shape=umlControl;whiteSpace=wrap;html=1;" vertex="1" parent="1">
          <mxGeometry x="530" y="300" width="70" height="80" as="geometry" />
        </mxCell>
        <mxCell id="qj5rxI9r2_AvYIzPK2SU-12" value="訪問者" style="ellipse;shape=umlEntity;whiteSpace=wrap;html=1;" vertex="1" parent="1">
          <mxGeometry x="700" y="300" width="80" height="80" as="geometry" />
        </mxCell>
        <mxCell id="qj5rxI9r2_AvYIzPK2SU-13" value="" style="endArrow=classic;html=1;rounded=0;entryX=0.017;entryY=0.517;entryDx=0;entryDy=0;entryPerimeter=0;" edge="1" parent="1" source="qj5rxI9r2_AvYIzPK2SU-1" target="qj5rxI9r2_AvYIzPK2SU-2">
          <mxGeometry width="50" height="50" relative="1" as="geometry">
            <mxPoint x="80" y="210" as="sourcePoint" />
            <mxPoint x="150.71067811865476" y="160" as="targetPoint" />
          </mxGeometry>
        </mxCell>
        <mxCell id="qj5rxI9r2_AvYIzPK2SU-14" value="" style="endArrow=classic;html=1;rounded=0;entryX=0;entryY=0.5;entryDx=0;entryDy=0;entryPerimeter=0;" edge="1" parent="1" target="qj5rxI9r2_AvYIzPK2SU-3">
          <mxGeometry width="50" height="50" relative="1" as="geometry">
            <mxPoint x="80" y="170" as="sourcePoint" />
            <mxPoint x="242" y="126" as="targetPoint" />
          </mxGeometry>
        </mxCell>
        <mxCell id="qj5rxI9r2_AvYIzPK2SU-17" value="" style="endArrow=classic;html=1;rounded=0;entryX=0.99;entryY=0.467;entryDx=0;entryDy=0;entryPerimeter=0;exitX=0.59;exitY=1.033;exitDx=0;exitDy=0;exitPerimeter=0;" edge="1" parent="1" source="qj5rxI9r2_AvYIzPK2SU-10" target="qj5rxI9r2_AvYIzPK2SU-6">
          <mxGeometry width="50" height="50" relative="1" as="geometry">
            <mxPoint x="610" y="360" as="sourcePoint" />
            <mxPoint x="533.6800000000001" y="454" as="targetPoint" />
          </mxGeometry>
        </mxCell>
        <mxCell id="qj5rxI9r2_AvYIzPK2SU-18" value="" style="endArrow=classic;html=1;rounded=0;exitX=0.295;exitY=1.017;exitDx=0;exitDy=0;exitPerimeter=0;entryX=0.99;entryY=0.65;entryDx=0;entryDy=0;entryPerimeter=0;" edge="1" parent="1" source="qj5rxI9r2_AvYIzPK2SU-10" target="qj5rxI9r2_AvYIzPK2SU-4">
          <mxGeometry width="50" height="50" relative="1" as="geometry">
            <mxPoint x="520" y="350" as="sourcePoint" />
            <mxPoint x="508.7891622100699" y="370.6600332742471" as="targetPoint" />
          </mxGeometry>
        </mxCell>
        <mxCell id="qj5rxI9r2_AvYIzPK2SU-19" value="" style="endArrow=classic;html=1;rounded=0;exitX=0.048;exitY=0.8;exitDx=0;exitDy=0;exitPerimeter=0;entryX=0.983;entryY=0.608;entryDx=0;entryDy=0;entryPerimeter=0;" edge="1" parent="1" source="qj5rxI9r2_AvYIzPK2SU-10" target="qj5rxI9r2_AvYIzPK2SU-5">
          <mxGeometry width="50" height="50" relative="1" as="geometry">
            <mxPoint x="478" y="304" as="sourcePoint" />
            <mxPoint x="490" y="300" as="targetPoint" />
          </mxGeometry>
        </mxCell>
        <mxCell id="qj5rxI9r2_AvYIzPK2SU-20" value="" style="endArrow=classic;html=1;rounded=0;entryX=0.038;entryY=0.575;entryDx=0;entryDy=0;entryPerimeter=0;exitX=1.017;exitY=0.717;exitDx=0;exitDy=0;exitPerimeter=0;" edge="1" parent="1" source="qj5rxI9r2_AvYIzPK2SU-3" target="qj5rxI9r2_AvYIzPK2SU-10">
          <mxGeometry width="50" height="50" relative="1" as="geometry">
            <mxPoint x="350" y="244" as="sourcePoint" />
            <mxPoint x="512" y="200" as="targetPoint" />
          </mxGeometry>
        </mxCell>
        <mxCell id="qj5rxI9r2_AvYIzPK2SU-21" value="" style="endArrow=classic;html=1;rounded=0;entryX=0.977;entryY=0.475;entryDx=0;entryDy=0;entryPerimeter=0;exitX=0.062;exitY=0.767;exitDx=0;exitDy=0;exitPerimeter=0;" edge="1" parent="1" source="qj5rxI9r2_AvYIzPK2SU-7" target="qj5rxI9r2_AvYIzPK2SU-3">
          <mxGeometry width="50" height="50" relative="1" as="geometry">
            <mxPoint x="550" y="160" as="sourcePoint" />
            <mxPoint x="592" y="188" as="targetPoint" />
          </mxGeometry>
        </mxCell>
        <mxCell id="qj5rxI9r2_AvYIzPK2SU-22" value="" style="endArrow=classic;html=1;rounded=0;entryX=-0.014;entryY=0.633;entryDx=0;entryDy=0;entryPerimeter=0;exitX=0.963;exitY=0.683;exitDx=0;exitDy=0;exitPerimeter=0;" edge="1" parent="1" source="qj5rxI9r2_AvYIzPK2SU-2" target="qj5rxI9r2_AvYIzPK2SU-7">
          <mxGeometry width="50" height="50" relative="1" as="geometry">
            <mxPoint x="368" y="154" as="sourcePoint" />
            <mxPoint x="530" y="110" as="targetPoint" />
          </mxGeometry>
        </mxCell>
        <mxCell id="qj5rxI9r2_AvYIzPK2SU-24" value="" style="endArrow=classic;startArrow=classic;html=1;rounded=0;entryX=0;entryY=0.5;entryDx=0;entryDy=0;" edge="1" parent="1" source="qj5rxI9r2_AvYIzPK2SU-10" target="qj5rxI9r2_AvYIzPK2SU-12">
          <mxGeometry width="50" height="50" relative="1" as="geometry">
            <mxPoint x="630" y="270" as="sourcePoint" />
            <mxPoint x="680" y="220" as="targetPoint" />
          </mxGeometry>
        </mxCell>
        <mxCell id="qj5rxI9r2_AvYIzPK2SU-28" value="登録ユーザー" style="text;html=1;align=center;verticalAlign=middle;whiteSpace=wrap;rounded=0;" vertex="1" parent="1">
          <mxGeometry x="360" y="310" width="100" height="30" as="geometry" />
        </mxCell>
        <mxCell id="qj5rxI9r2_AvYIzPK2SU-32" value="未登録ユーザー" style="text;html=1;align=center;verticalAlign=middle;whiteSpace=wrap;rounded=0;" vertex="1" parent="1">
          <mxGeometry x="370" y="380" width="90" height="30" as="geometry" />
        </mxCell>
        <mxCell id="qj5rxI9r2_AvYIzPK2SU-33" value="入力データ不良" style="text;html=1;align=center;verticalAlign=middle;whiteSpace=wrap;rounded=0;" vertex="1" parent="1">
          <mxGeometry x="440" y="460" width="90" height="30" as="geometry" />
        </mxCell>
        <mxCell id="qj5rxI9r2_AvYIzPK2SU-34" value="URL入力" style="text;html=1;align=center;verticalAlign=middle;whiteSpace=wrap;rounded=0;" vertex="1" parent="1">
          <mxGeometry x="145" y="100" width="60" height="30" as="geometry" />
        </mxCell>
        <mxCell id="qj5rxI9r2_AvYIzPK2SU-35" value="IDとパスワード入力" style="text;html=1;align=center;verticalAlign=middle;whiteSpace=wrap;rounded=0;" vertex="1" parent="1">
          <mxGeometry x="130" y="210" width="90" height="30" as="geometry" />
        </mxCell>
        <mxCell id="qj5rxI9r2_AvYIzPK2SU-38" style="edgeStyle=orthogonalEdgeStyle;rounded=0;orthogonalLoop=1;jettySize=auto;html=1;exitX=0.5;exitY=1;exitDx=0;exitDy=0;" edge="1" parent="1" source="qj5rxI9r2_AvYIzPK2SU-28" target="qj5rxI9r2_AvYIzPK2SU-28">
          <mxGeometry relative="1" as="geometry" />
        </mxCell>
      </root>
    </mxGraphModel>
  </diagram>
</mxfile>
